<?xml version="1.0" encoding="UTF-8"?>
<!DOCTYPE svg PUBLIC "-//W3C//DTD SVG 1.1//EN" "http://www.w3.org/Graphics/SVG/1.1/DTD/svg11.dtd"><svg version="1.1" viewBox="0 0 15000 17000" preserveAspectRatio="xMidYMid" fill-rule="evenodd" xmlns="http://www.w3.org/2000/svg" xmlns:xlink="http://www.w3.org/1999/xlink"><g visibility="visible" id="Обычный"><desc>Master slide</desc></g><g visibility="visible" id="page1"><desc>Slide</desc><g><desc>Drawing</desc><g><g style="stroke:none;fill:rgb(153,204,255)"><path d="M 13200,14132 L 1699,14132 4575,3131 10325,3131 13200,14132 Z"/></g><g style="stroke:none;fill:rgb(0,0,0)"><path d="M 13200,14157 L 1699,14157 1699,14132 1699,14107 13200,14107 13200,14132 13200,14157 Z"/><path d="M 1699,14132 L 1699,14157 1695,14157 1690,14155 1687,14154 1683,14151 1680,14148 1677,14145 1676,14141 1674,14136 1674,14132 1674,14128 1675,14126 1699,14132 Z"/><path d="M 1675,14126 L 4551,3125 4575,3131 4599,3137 1723,14138 1699,14132 1675,14126 Z"/><path d="M 4575,3131 L 4551,3125 4552,3121 4554,3117 4557,3113 4561,3111 4564,3108 4568,3107 4573,3106 4575,3106 4575,3131 Z"/><path d="M 4575,3106 L 10325,3106 10325,3131 10325,3156 4575,3156 4575,3131 4575,3106 Z"/><path d="M 10325,3131 L 10325,3106 10329,3106 10334,3108 10337,3109 10341,3112 10344,3115 10347,3118 10348,3122 10349,3125 10325,3131 Z"/><path d="M 10349,3125 L 13224,14126 13200,14132 13176,14138 10301,3137 10325,3131 10349,3125 Z"/><path d="M 13200,14132 L 13224,14126 13225,14130 13225,14134 13224,14139 13223,14143 13220,14146 13218,14150 13214,14153 13210,14155 13206,14156 13202,14157 13200,14157 13200,14132 Z"/></g><g/></g></g><g><desc>Drawing</desc><g><g style="stroke:none;fill:rgb(153,204,255)"><path d="M 7446,4456 L 6861,4431 6317,4358 6064,4305 5824,4242 5601,4170 5395,4090 5208,4001 5041,3905 4896,3802 4774,3692 4676,3578 4637,3518 4605,3458 4579,3396 4561,3334 4550,3270 4546,3206 4550,3142 4561,3078 4579,3016 4605,2954 4637,2894 4676,2834 4774,2720 4896,2610 5041,2507 5208,2411 5395,2322 5601,2242 5824,2170 6064,2107 6317,2054 6861,1981 7446,1956 8031,1981 8575,2054 8828,2107 9068,2170 9291,2242 9497,2322 9684,2411 9851,2507 9996,2610 10118,2720 10216,2834 10255,2894 10287,2954 10313,3016 10331,3078 10342,3142 10346,3206 10342,3270 10331,3334 10313,3396 10287,3458 10255,3518 10216,3578 10118,3692 9996,3802 9851,3905 9684,4001 9497,4090 9291,4170 9068,4242 8828,4305 8575,4358 8031,4431 7446,4456 Z"/></g><g style="stroke:none;fill:rgb(0,0,0)"><path d="M 7445,4481 L 6860,4456 6862,4431 6863,4406 7447,4431 7446,4456 7445,4481 Z"/><path d="M 6862,4431 L 6860,4456 6858,4455 6862,4431 Z"/><path d="M 6858,4455 L 6314,4383 6317,4358 6321,4333 6865,4406 6862,4431 6858,4455 Z"/><path d="M 6317,4358 L 6314,4383 6312,4382 6317,4358 Z"/><path d="M 6312,4382 L 6059,4330 6064,4305 6069,4281 6322,4333 6317,4358 6312,4382 Z"/><path d="M 6064,4305 L 6059,4330 6057,4329 6064,4305 Z"/><path d="M 6057,4329 L 5818,4267 5825,4243 5831,4218 6070,4281 6064,4305 6057,4329 Z"/><path d="M 5825,4243 L 5818,4267 5817,4266 5825,4243 Z"/><path d="M 5817,4266 L 5594,4194 5601,4171 5609,4147 5832,4219 5825,4243 5817,4266 Z"/><path d="M 5601,4171 L 5594,4194 5592,4194 5601,4171 Z"/><path d="M 5592,4194 L 5386,4113 5395,4090 5405,4067 5610,4147 5601,4171 5592,4194 Z"/><path d="M 5395,4090 L 5386,4113 5385,4112 5395,4090 Z"/><path d="M 5385,4112 L 5198,4024 5208,4001 5219,3979 5406,4067 5395,4090 5385,4112 Z"/><path d="M 5208,4001 L 5198,4024 5196,4023 5208,4001 Z"/><path d="M 5196,4023 L 5029,3927 5041,3905 5054,3883 5221,3979 5208,4001 5196,4023 Z"/><path d="M 5041,3905 L 5029,3927 5027,3925 5041,3905 Z"/><path d="M 5027,3925 L 4882,3822 4896,3802 4910,3781 5056,3884 5041,3905 5027,3925 Z"/><path d="M 4896,3802 L 4882,3822 4879,3820 4896,3802 Z"/><path d="M 4879,3820 L 4757,3711 4774,3693 4791,3674 4913,3783 4896,3802 4879,3820 Z"/><path d="M 4774,3693 L 4757,3711 4755,3709 4774,3693 Z"/><path d="M 4755,3709 L 4657,3594 4676,3578 4695,3562 4793,3676 4774,3693 4755,3709 Z"/><path d="M 4676,3578 L 4657,3594 4656,3591 4676,3578 Z"/><path d="M 4656,3591 L 4616,3532 4637,3518 4658,3505 4697,3564 4676,3578 4656,3591 Z"/><path d="M 4637,3518 L 4616,3532 4615,3530 4637,3518 Z"/><path d="M 4615,3530 L 4583,3470 4605,3458 4627,3446 4659,3507 4637,3518 4615,3530 Z"/><path d="M 4605,3458 L 4583,3470 4582,3467 4605,3458 Z"/><path d="M 4582,3467 L 4556,3406 4579,3396 4603,3387 4628,3448 4605,3458 4582,3467 Z"/><path d="M 4579,3396 L 4556,3406 4555,3403 4579,3396 Z"/><path d="M 4555,3403 L 4537,3341 4561,3334 4585,3327 4603,3389 4579,3396 4555,3403 Z"/><path d="M 4561,3334 L 4537,3341 4536,3338 4561,3334 Z"/><path d="M 4536,3338 L 4525,3275 4550,3270 4574,3266 4586,3329 4561,3334 4536,3338 Z"/><path d="M 4550,3270 L 4525,3275 4525,3272 4550,3270 Z"/><path d="M 4525,3272 L 4521,3207 4546,3206 4571,3205 4575,3269 4550,3270 4525,3272 Z"/><path d="M 4546,3206 L 4521,3207 4521,3205 4546,3206 Z"/><path d="M 4521,3205 L 4525,3140 4550,3142 4575,3143 4571,3207 4546,3206 4521,3205 Z"/><path d="M 4550,3142 L 4525,3140 4525,3137 4550,3142 Z"/><path d="M 4525,3137 L 4536,3074 4561,3078 4586,3083 4574,3146 4550,3142 4525,3137 Z"/><path d="M 4561,3078 L 4536,3074 4537,3071 4561,3078 Z"/><path d="M 4537,3071 L 4555,3009 4579,3016 4603,3023 4585,3085 4561,3078 4537,3071 Z"/><path d="M 4579,3016 L 4555,3009 4556,3006 4579,3016 Z"/><path d="M 4556,3006 L 4582,2945 4605,2954 4628,2964 4603,3025 4579,3016 4556,3006 Z"/><path d="M 4605,2954 L 4582,2945 4583,2942 4605,2954 Z"/><path d="M 4583,2942 L 4615,2882 4637,2894 4659,2905 4627,2966 4605,2954 4583,2942 Z"/><path d="M 4637,2894 L 4615,2882 4616,2880 4637,2894 Z"/><path d="M 4616,2880 L 4656,2821 4676,2834 4697,2848 4658,2907 4637,2894 4616,2880 Z"/><path d="M 4676,2834 L 4656,2821 4657,2818 4676,2834 Z"/><path d="M 4657,2818 L 4755,2703 4774,2719 4793,2736 4695,2850 4676,2834 4657,2818 Z"/><path d="M 4774,2719 L 4755,2703 4757,2701 4774,2719 Z"/><path d="M 4757,2701 L 4879,2592 4896,2610 4913,2629 4791,2738 4774,2719 4757,2701 Z"/><path d="M 4896,2610 L 4879,2592 4882,2590 4896,2610 Z"/><path d="M 4882,2590 L 5027,2487 5041,2507 5056,2528 4910,2631 4896,2610 4882,2590 Z"/><path d="M 5041,2507 L 5027,2487 5029,2485 5041,2507 Z"/><path d="M 5029,2485 L 5196,2389 5208,2411 5221,2433 5054,2529 5041,2507 5029,2485 Z"/><path d="M 5208,2411 L 5196,2389 5198,2388 5208,2411 Z"/><path d="M 5198,2388 L 5385,2300 5395,2322 5406,2345 5219,2433 5208,2411 5198,2388 Z"/><path d="M 5395,2322 L 5385,2300 5386,2299 5395,2322 Z"/><path d="M 5386,2299 L 5592,2218 5601,2241 5610,2265 5405,2345 5395,2322 5386,2299 Z"/><path d="M 5601,2241 L 5592,2218 5594,2218 5601,2241 Z"/><path d="M 5594,2218 L 5817,2146 5825,2169 5832,2193 5609,2265 5601,2241 5594,2218 Z"/><path d="M 5825,2169 L 5817,2146 5818,2145 5825,2169 Z"/><path d="M 5818,2145 L 6057,2083 6064,2107 6070,2131 5831,2194 5825,2169 5818,2145 Z"/><path d="M 6064,2107 L 6057,2083 6059,2082 6064,2107 Z"/><path d="M 6059,2082 L 6312,2030 6317,2054 6322,2079 6069,2131 6064,2107 6059,2082 Z"/><path d="M 6317,2054 L 6312,2030 6314,2029 6317,2054 Z"/><path d="M 6314,2029 L 6858,1957 6862,1981 6865,2006 6321,2079 6317,2054 6314,2029 Z"/><path d="M 6862,1981 L 6858,1957 6860,1956 6862,1981 Z"/><path d="M 6860,1956 L 7445,1931 7446,1956 7447,1981 6863,2006 6862,1981 6860,1956 Z"/><path d="M 7446,1956 L 7445,1931 7447,1931 7446,1956 Z"/><path d="M 7447,1931 L 8032,1956 8030,1981 8029,2006 7445,1981 7446,1956 7447,1931 Z"/><path d="M 8030,1981 L 8032,1956 8034,1957 8030,1981 Z"/><path d="M 8034,1957 L 8578,2029 8575,2054 8571,2079 8027,2006 8030,1981 8034,1957 Z"/><path d="M 8575,2054 L 8578,2029 8580,2030 8575,2054 Z"/><path d="M 8580,2030 L 8833,2082 8828,2107 8823,2131 8570,2079 8575,2054 8580,2030 Z"/><path d="M 8828,2107 L 8833,2082 8835,2083 8828,2107 Z"/><path d="M 8835,2083 L 9074,2145 9067,2169 9061,2194 8822,2131 8828,2107 8835,2083 Z"/><path d="M 9067,2169 L 9074,2145 9075,2146 9067,2169 Z"/><path d="M 9075,2146 L 9298,2218 9291,2241 9283,2265 9060,2193 9067,2169 9075,2146 Z"/><path d="M 9291,2241 L 9298,2218 9300,2218 9291,2241 Z"/><path d="M 9300,2218 L 9506,2299 9497,2322 9487,2345 9282,2265 9291,2241 9300,2218 Z"/><path d="M 9497,2322 L 9506,2299 9507,2300 9497,2322 Z"/><path d="M 9507,2300 L 9694,2388 9684,2411 9673,2433 9486,2345 9497,2322 9507,2300 Z"/><path d="M 9684,2411 L 9694,2388 9696,2389 9684,2411 Z"/><path d="M 9696,2389 L 9863,2485 9851,2507 9838,2529 9671,2433 9684,2411 9696,2389 Z"/><path d="M 9851,2507 L 9863,2485 9865,2487 9851,2507 Z"/><path d="M 9865,2487 L 10010,2590 9996,2610 9982,2631 9836,2528 9851,2507 9865,2487 Z"/><path d="M 9996,2610 L 10010,2590 10013,2592 9996,2610 Z"/><path d="M 10013,2592 L 10135,2701 10118,2719 10101,2738 9979,2629 9996,2610 10013,2592 Z"/><path d="M 10118,2719 L 10135,2701 10137,2703 10118,2719 Z"/><path d="M 10137,2703 L 10235,2818 10216,2834 10197,2850 10099,2736 10118,2719 10137,2703 Z"/><path d="M 10216,2834 L 10235,2818 10236,2821 10216,2834 Z"/><path d="M 10236,2821 L 10276,2880 10255,2894 10234,2907 10195,2848 10216,2834 10236,2821 Z"/><path d="M 10255,2894 L 10276,2880 10277,2882 10255,2894 Z"/><path d="M 10277,2882 L 10309,2942 10287,2954 10265,2966 10233,2905 10255,2894 10277,2882 Z"/><path d="M 10287,2954 L 10309,2942 10310,2945 10287,2954 Z"/><path d="M 10310,2945 L 10336,3006 10313,3016 10289,3025 10264,2964 10287,2954 10310,2945 Z"/><path d="M 10313,3016 L 10336,3006 10337,3009 10313,3016 Z"/><path d="M 10337,3009 L 10355,3071 10331,3078 10307,3085 10289,3023 10313,3016 10337,3009 Z"/><path d="M 10331,3078 L 10355,3071 10356,3074 10331,3078 Z"/><path d="M 10356,3074 L 10367,3137 10342,3142 10318,3146 10306,3083 10331,3078 10356,3074 Z"/><path d="M 10342,3142 L 10367,3137 10367,3140 10342,3142 Z"/><path d="M 10367,3140 L 10371,3205 10346,3206 10321,3207 10317,3143 10342,3142 10367,3140 Z"/><path d="M 10346,3206 L 10371,3205 10371,3207 10346,3206 Z"/><path d="M 10371,3207 L 10367,3272 10342,3270 10317,3269 10321,3205 10346,3206 10371,3207 Z"/><path d="M 10342,3270 L 10367,3272 10367,3275 10342,3270 Z"/><path d="M 10367,3275 L 10356,3338 10331,3334 10306,3329 10318,3266 10342,3270 10367,3275 Z"/><path d="M 10331,3334 L 10356,3338 10355,3341 10331,3334 Z"/><path d="M 10355,3341 L 10337,3403 10313,3396 10289,3389 10307,3327 10331,3334 10355,3341 Z"/><path d="M 10313,3396 L 10337,3403 10336,3406 10313,3396 Z"/><path d="M 10336,3406 L 10310,3467 10287,3458 10264,3448 10289,3387 10313,3396 10336,3406 Z"/><path d="M 10287,3458 L 10310,3467 10309,3470 10287,3458 Z"/><path d="M 10309,3470 L 10277,3530 10255,3518 10233,3507 10265,3446 10287,3458 10309,3470 Z"/><path d="M 10255,3518 L 10277,3530 10276,3532 10255,3518 Z"/><path d="M 10276,3532 L 10236,3591 10216,3578 10195,3564 10234,3505 10255,3518 10276,3532 Z"/><path d="M 10216,3578 L 10236,3591 10235,3594 10216,3578 Z"/><path d="M 10235,3594 L 10137,3709 10118,3693 10099,3676 10197,3562 10216,3578 10235,3594 Z"/><path d="M 10118,3693 L 10137,3709 10135,3711 10118,3693 Z"/><path d="M 10135,3711 L 10013,3820 9996,3802 9979,3783 10101,3674 10118,3693 10135,3711 Z"/><path d="M 9996,3802 L 10013,3820 10010,3822 9996,3802 Z"/><path d="M 10010,3822 L 9865,3925 9851,3905 9836,3884 9982,3781 9996,3802 10010,3822 Z"/><path d="M 9851,3905 L 9865,3925 9863,3927 9851,3905 Z"/><path d="M 9863,3927 L 9696,4023 9684,4001 9671,3979 9838,3883 9851,3905 9863,3927 Z"/><path d="M 9684,4001 L 9696,4023 9694,4024 9684,4001 Z"/><path d="M 9694,4024 L 9507,4112 9497,4090 9486,4067 9673,3979 9684,4001 9694,4024 Z"/><path d="M 9497,4090 L 9507,4112 9506,4113 9497,4090 Z"/><path d="M 9506,4113 L 9300,4194 9291,4171 9282,4147 9487,4067 9497,4090 9506,4113 Z"/><path d="M 9291,4171 L 9300,4194 9298,4194 9291,4171 Z"/><path d="M 9298,4194 L 9075,4266 9067,4243 9060,4219 9283,4147 9291,4171 9298,4194 Z"/><path d="M 9067,4243 L 9075,4266 9074,4267 9067,4243 Z"/><path d="M 9074,4267 L 8835,4329 8828,4305 8822,4281 9061,4218 9067,4243 9074,4267 Z"/><path d="M 8828,4305 L 8835,4329 8833,4330 8828,4305 Z"/><path d="M 8833,4330 L 8580,4382 8575,4358 8570,4333 8823,4281 8828,4305 8833,4330 Z"/><path d="M 8575,4358 L 8580,4382 8578,4383 8575,4358 Z"/><path d="M 8578,4383 L 8034,4455 8030,4431 8027,4406 8571,4333 8575,4358 8578,4383 Z"/><path d="M 8030,4431 L 8034,4455 8032,4456 8030,4431 Z"/><path d="M 8032,4456 L 7447,4481 7446,4456 7445,4431 8029,4406 8030,4431 8032,4456 Z"/><path d="M 7446,4456 L 7447,4481 7445,4481 7446,4456 Z"/></g><g/></g></g><g><desc>Drawing</desc><g><g style="stroke:none;fill:rgb(153,204,255)"><path d="M 7472,15632 L 6313,15602 5234,15514 4257,15376 3406,15193 3035,15086 2704,14970 2416,14847 2174,14716 1980,14578 1903,14507 1839,14434 1788,14360 1752,14285 1729,14209 1722,14132 1729,14055 1752,13979 1788,13904 1839,13830 1903,13757 1980,13686 2174,13548 2416,13417 2704,13294 3035,13178 3406,13072 4257,12888 5234,12750 6313,12662 7472,12632 8631,12662 9710,12750 10687,12888 11538,13072 11909,13178 12240,13294 12528,13417 12770,13548 12964,13686 13041,13757 13105,13830 13156,13904 13192,13979 13215,14055 13222,14132 13215,14209 13192,14285 13156,14360 13105,14434 13041,14507 12964,14578 12770,14716 12528,14847 12240,14970 11909,15086 11538,15193 10687,15376 9710,15514 8631,15602 7472,15632 Z"/></g><g style="stroke:none;fill:rgb(0,0,0)"><path d="M 7471,15657 L 7373,15654 7374,15604 7473,15607 7471,15657 Z"/><path d="M 7309,15653 L 7211,15650 7212,15600 7311,15603 7309,15653 Z"/><path d="M 7147,15648 L 7049,15646 7050,15596 7149,15598 7147,15648 Z"/><path d="M 6986,15644 L 6887,15642 6888,15592 6987,15594 6986,15644 Z"/><path d="M 6824,15640 L 6725,15637 6726,15587 6825,15590 6824,15640 Z"/><path d="M 6662,15636 L 6563,15633 6564,15583 6663,15586 6662,15636 Z"/><path d="M 6500,15631 L 6401,15629 6403,15579 6501,15581 6500,15631 Z"/><path d="M 6338,15627 L 6313,15627 6313,15602 6314,15577 6339,15577 6338,15602 6338,15627 Z"/><path d="M 6313,15602 L 6313,15627 6311,15626 6313,15602 Z"/><path d="M 6311,15626 L 6238,15621 6240,15596 6242,15571 6315,15577 6313,15602 6311,15626 Z"/><path d="M 6175,15615 L 6077,15607 6081,15558 6179,15566 6175,15615 Z"/><path d="M 6013,15602 L 5915,15594 5919,15545 6017,15552 6013,15602 Z"/><path d="M 5852,15589 L 5754,15581 5758,15531 5856,15539 5852,15589 Z"/><path d="M 5690,15576 L 5592,15568 5596,15518 5694,15526 5690,15576 Z"/><path d="M 5529,15563 L 5431,15555 5435,15505 5533,15513 5529,15563 Z"/><path d="M 5367,15550 L 5269,15542 5273,15492 5372,15500 5367,15550 Z"/><path d="M 5205,15535 L 5107,15521 5114,15472 5212,15486 5205,15535 Z"/><path d="M 5044,15513 L 4947,15499 4954,15449 5051,15463 5044,15513 Z"/><path d="M 4884,15490 L 4786,15476 4793,15427 4891,15440 4884,15490 Z"/><path d="M 4723,15467 L 4626,15453 4633,15404 4730,15418 4723,15467 Z"/><path d="M 4563,15444 L 4466,15431 4473,15381 4570,15395 4563,15444 Z"/><path d="M 4403,15422 L 4305,15408 4312,15358 4410,15372 4403,15422 Z"/><path d="M 4241,15398 L 4144,15377 4155,15328 4251,15349 4241,15398 Z"/><path d="M 4082,15364 L 3986,15343 3997,15294 4093,15315 4082,15364 Z"/><path d="M 3924,15330 L 3828,15309 3838,15260 3934,15281 3924,15330 Z"/><path d="M 3766,15296 L 3669,15275 3680,15226 3776,15247 3766,15296 Z"/><path d="M 3607,15262 L 3511,15241 3521,15192 3618,15213 3607,15262 Z"/><path d="M 3449,15227 L 3401,15217 3406,15193 3411,15168 3459,15179 3454,15203 3449,15227 Z"/><path d="M 3406,15193 L 3401,15217 3399,15217 3406,15193 Z"/><path d="M 3399,15217 L 3352,15203 3359,15179 3365,15155 3413,15169 3406,15193 3399,15217 Z"/><path d="M 3291,15186 L 3196,15158 3210,15110 3304,15137 3291,15186 Z"/><path d="M 3135,15141 L 3040,15114 3054,15066 3149,15093 3135,15141 Z"/><path d="M 2979,15093 L 2886,15061 2902,15013 2995,15046 2979,15093 Z"/><path d="M 2826,15040 L 2733,15007 2749,14960 2842,14992 2826,15040 Z"/><path d="M 2672,14984 L 2581,14945 2601,14899 2692,14938 2672,14984 Z"/><path d="M 2523,14920 L 2432,14881 2452,14835 2543,14874 2523,14920 Z"/><path d="M 2373,14852 L 2287,14805 2311,14762 2397,14808 2373,14852 Z"/><path d="M 2231,14775 L 2162,14738 2174,14716 2186,14694 2255,14731 2243,14753 2231,14775 Z"/><path d="M 2174,14716 L 2162,14738 2159,14736 2174,14716 Z"/><path d="M 2159,14736 L 2143,14725 2158,14704 2172,14684 2188,14696 2174,14716 2159,14736 Z"/><path d="M 2091,14688 L 2011,14631 2040,14590 2120,14647 2091,14688 Z"/><path d="M 1958,14591 L 1886,14525 1903,14507 1920,14488 1991,14554 1975,14573 1958,14591 Z"/><path d="M 1903,14507 L 1886,14525 1884,14523 1903,14507 Z"/><path d="M 1884,14523 L 1883,14522 1902,14506 1921,14489 1922,14490 1903,14507 1884,14523 Z"/><path d="M 1841,14475 L 1820,14451 1839,14434 1858,14418 1879,14442 1860,14458 1841,14475 Z"/><path d="M 1839,14434 L 1820,14451 1818,14448 1839,14434 Z"/><path d="M 1818,14448 L 1781,14394 1801,14379 1822,14365 1859,14420 1839,14434 1818,14448 Z"/><path d="M 1748,14335 L 1729,14296 1752,14285 1774,14274 1793,14313 1771,14324 1748,14335 Z"/><path d="M 1752,14285 L 1729,14296 1728,14292 1752,14285 Z"/><path d="M 1728,14292 L 1712,14239 1736,14232 1760,14225 1776,14278 1752,14285 1728,14292 Z"/><path d="M 1701,14172 L 1697,14134 1722,14132 1747,14130 1751,14167 1726,14170 1701,14172 Z"/><path d="M 1722,14132 L 1697,14134 1697,14130 1697,14130 1722,14132 Z"/><path d="M 1697,14130 L 1703,14069 1728,14072 1753,14074 1747,14134 1722,14132 1697,14130 Z"/><path d="M 1718,14003 L 1728,13972 1752,13979 1776,13986 1766,14017 1742,14010 1718,14003 Z"/><path d="M 1752,13979 L 1728,13972 1729,13968 1752,13979 Z"/><path d="M 1729,13968 L 1758,13909 1780,13920 1803,13931 1774,13990 1752,13979 1729,13968 Z"/><path d="M 1793,13852 L 1818,13816 1839,13830 1859,13844 1835,13880 1814,13866 1793,13852 Z"/><path d="M 1839,13830 L 1818,13816 1820,13813 1839,13830 Z"/><path d="M 1820,13813 L 1856,13772 1875,13789 1894,13805 1858,13846 1839,13830 1820,13813 Z"/><path d="M 1902,13724 L 1964,13668 1981,13686 1997,13704 1936,13761 1919,13743 1902,13724 Z"/><path d="M 1981,13686 L 1964,13668 1966,13666 1981,13686 Z"/><path d="M 1966,13666 L 1978,13657 1992,13678 2007,13698 1995,13706 1981,13686 1966,13666 Z"/><path d="M 2030,13620 L 2110,13563 2139,13604 2059,13661 2030,13620 Z"/><path d="M 2164,13525 L 2251,13478 2275,13522 2188,13569 2164,13525 Z"/><path d="M 2307,13448 L 2393,13401 2417,13445 2330,13492 2307,13448 Z"/><path d="M 2453,13374 L 2544,13335 2563,13381 2473,13420 2453,13374 Z"/><path d="M 2602,13310 L 2693,13271 2712,13317 2622,13356 2602,13310 Z"/><path d="M 2754,13249 L 2847,13217 2864,13264 2771,13297 2754,13249 Z"/><path d="M 2907,13196 L 3000,13164 3017,13211 2924,13243 2907,13196 Z"/><path d="M 3062,13144 L 3157,13117 3170,13165 3076,13192 3062,13144 Z"/><path d="M 3218,13099 L 3312,13072 3326,13120 3231,13147 3218,13099 Z"/><path d="M 3373,13055 L 3399,13047 3406,13071 3413,13095 3387,13103 3380,13079 3373,13055 Z"/><path d="M 3406,13071 L 3399,13047 3401,13047 3406,13071 Z"/><path d="M 3401,13047 L 3471,13032 3476,13056 3481,13081 3411,13096 3406,13071 3401,13047 Z"/><path d="M 3533,13018 L 3629,12998 3640,13047 3543,13067 3533,13018 Z"/><path d="M 3691,12984 L 3788,12964 3798,13013 3702,13033 3691,12984 Z"/><path d="M 3850,12950 L 3946,12930 3956,12978 3860,12999 3850,12950 Z"/><path d="M 4008,12916 L 4104,12895 4115,12944 4019,12965 4008,12916 Z"/><path d="M 4166,12882 L 4252,12864 4257,12888 4262,12913 4177,12931 4172,12907 4166,12882 Z"/><path d="M 4257,12888 L 4252,12864 4254,12863 4257,12888 Z"/><path d="M 4254,12863 L 4265,12862 4268,12887 4272,12911 4261,12913 4257,12888 4254,12863 Z"/><path d="M 4327,12853 L 4425,12839 4432,12889 4334,12902 4327,12853 Z"/><path d="M 4488,12830 L 4585,12816 4592,12866 4495,12880 4488,12830 Z"/><path d="M 4648,12808 L 4746,12794 4753,12843 4655,12857 4648,12808 Z"/><path d="M 4809,12785 L 4906,12771 4913,12821 4816,12834 4809,12785 Z"/><path d="M 4969,12762 L 5067,12748 5074,12798 4976,12812 4969,12762 Z"/><path d="M 5129,12739 L 5227,12726 5234,12775 5136,12789 5129,12739 Z"/><path d="M 5292,12720 L 5390,12712 5394,12762 5296,12770 5292,12720 Z"/><path d="M 5453,12707 L 5551,12699 5555,12749 5457,12757 5453,12707 Z"/><path d="M 5615,12694 L 5713,12686 5717,12736 5619,12744 5615,12694 Z"/><path d="M 5776,12681 L 5874,12673 5878,12723 5780,12731 5776,12681 Z"/><path d="M 5938,12668 L 6036,12660 6040,12710 5942,12718 5938,12668 Z"/><path d="M 6099,12655 L 6197,12647 6201,12697 6103,12705 6099,12655 Z"/><path d="M 6261,12642 L 6311,12638 6313,12662 6315,12687 6265,12691 6263,12667 6261,12642 Z"/><path d="M 6313,12662 L 6311,12638 6313,12637 6313,12662 Z"/><path d="M 6313,12637 L 6360,12636 6361,12661 6362,12686 6314,12687 6313,12662 6313,12637 Z"/><path d="M 6424,12635 L 6522,12632 6524,12682 6425,12685 6424,12635 Z"/><path d="M 6586,12630 L 6684,12628 6685,12678 6587,12680 6586,12630 Z"/><path d="M 6748,12626 L 6846,12623 6847,12673 6749,12676 6748,12626 Z"/><path d="M 6910,12622 L 7008,12619 7009,12669 6911,12672 6910,12622 Z"/><path d="M 7072,12618 L 7170,12615 7171,12665 7073,12668 7072,12618 Z"/><path d="M 7233,12613 L 7332,12611 7333,12661 7235,12663 7233,12613 Z"/><path d="M 7395,12609 L 7471,12607 7472,12632 7473,12657 7397,12659 7396,12634 7395,12609 Z"/><path d="M 7472,12632 L 7471,12607 7473,12607 7472,12632 Z"/><path d="M 7473,12607 L 7495,12608 7495,12633 7494,12658 7471,12657 7472,12632 7473,12607 Z"/><path d="M 7559,12609 L 7657,12612 7656,12662 7557,12659 7559,12609 Z"/><path d="M 7721,12614 L 7819,12616 7818,12666 7719,12664 7721,12614 Z"/><path d="M 7883,12618 L 7981,12620 7980,12670 7881,12668 7883,12618 Z"/><path d="M 8045,12622 L 8143,12625 8142,12675 8043,12672 8045,12622 Z"/><path d="M 8206,12626 L 8305,12629 8304,12679 8205,12676 8206,12626 Z"/><path d="M 8368,12631 L 8467,12633 8466,12683 8367,12681 8368,12631 Z"/><path d="M 8530,12635 L 8629,12637 8627,12687 8529,12685 8530,12635 Z"/><path d="M 8693,12642 L 8792,12650 8788,12700 8689,12692 8693,12642 Z"/><path d="M 8855,12656 L 8953,12663 8949,12713 8851,12705 8855,12656 Z"/><path d="M 9016,12669 L 9115,12677 9111,12726 9012,12718 9016,12669 Z"/><path d="M 9178,12682 L 9276,12690 9272,12739 9174,12732 9178,12682 Z"/><path d="M 9339,12695 L 9438,12703 9433,12753 9335,12745 9339,12695 Z"/><path d="M 9501,12708 L 9599,12716 9595,12766 9497,12758 9501,12708 Z"/><path d="M 9662,12721 L 9712,12725 9710,12750 9708,12775 9658,12771 9660,12746 9662,12721 Z"/><path d="M 9710,12750 L 9712,12725 9714,12725 9710,12750 Z"/><path d="M 9714,12725 L 9762,12732 9758,12757 9755,12781 9707,12775 9710,12750 9714,12725 Z"/><path d="M 9825,12741 L 9922,12755 9915,12804 9818,12790 9825,12741 Z"/><path d="M 9985,12764 L 10082,12777 10075,12827 9978,12813 9985,12764 Z"/><path d="M 10145,12786 L 10243,12800 10236,12850 10138,12836 10145,12786 Z"/><path d="M 10306,12809 L 10403,12823 10396,12872 10299,12858 10306,12809 Z"/><path d="M 10466,12832 L 10564,12845 10557,12895 10459,12881 10466,12832 Z"/><path d="M 10627,12854 L 10690,12863 10687,12888 10683,12913 10620,12904 10623,12879 10627,12854 Z"/><path d="M 10687,12888 L 10690,12863 10692,12864 10687,12888 Z"/><path d="M 10692,12864 L 10725,12871 10720,12895 10715,12920 10682,12913 10687,12888 10692,12864 Z"/><path d="M 10787,12884 L 10884,12905 10873,12954 10777,12933 10787,12884 Z"/><path d="M 10946,12918 L 11042,12939 11032,12988 10935,12967 10946,12918 Z"/><path d="M 11104,12952 L 11200,12973 11190,13022 11094,13001 11104,12952 Z"/><path d="M 11263,12987 L 11359,13007 11348,13056 11252,13035 11263,12987 Z"/><path d="M 11421,13021 L 11517,13041 11507,13090 11410,13069 11421,13021 Z"/><path d="M 11580,13058 L 11675,13085 11661,13133 11567,13106 11580,13058 Z"/><path d="M 11736,13102 L 11831,13129 11817,13177 11722,13150 11736,13102 Z"/><path d="M 11892,13147 L 11916,13154 11909,13178 11902,13202 11878,13195 11885,13171 11892,13147 Z"/><path d="M 11909,13178 L 11916,13154 11917,13154 11909,13178 Z"/><path d="M 11917,13154 L 11987,13178 11978,13202 11970,13226 11901,13201 11909,13178 11917,13154 Z"/><path d="M 12046,13199 L 12139,13232 12123,13279 12030,13247 12046,13199 Z"/><path d="M 12199,13253 L 12248,13270 12240,13293 12232,13317 12183,13300 12191,13276 12199,13253 Z"/><path d="M 12240,13293 L 12248,13270 12250,13270 12240,13293 Z"/><path d="M 12250,13270 L 12293,13289 12283,13312 12273,13335 12230,13316 12240,13293 12250,13270 Z"/><path d="M 12351,13314 L 12442,13353 12422,13399 12332,13360 12351,13314 Z"/><path d="M 12500,13378 L 12538,13394 12528,13417 12518,13440 12480,13424 12490,13401 12500,13378 Z"/><path d="M 12528,13417 L 12538,13394 12540,13395 12528,13417 Z"/><path d="M 12540,13395 L 12590,13422 12578,13444 12567,13466 12516,13439 12528,13417 12540,13395 Z"/><path d="M 12646,13453 L 12733,13500 12709,13543 12622,13497 12646,13453 Z"/><path d="M 12791,13532 L 12871,13589 12842,13630 12762,13573 12791,13532 Z"/><path d="M 12923,13626 L 12978,13666 12963,13686 12949,13706 12894,13667 12908,13647 12923,13626 Z"/><path d="M 12963,13686 L 12978,13666 12980,13668 12963,13686 Z"/><path d="M 12980,13668 L 13003,13688 12986,13707 12969,13725 12947,13704 12963,13686 12980,13668 Z"/><path d="M 13050,13731 L 13058,13739 13041,13757 13024,13776 13016,13768 13033,13750 13050,13731 Z"/><path d="M 13041,13757 L 13058,13739 13060,13741 13041,13757 Z"/><path d="M 13060,13741 L 13118,13806 13099,13823 13080,13839 13022,13774 13041,13757 13060,13741 Z"/><path d="M 13156,13860 L 13176,13889 13156,13904 13135,13918 13115,13888 13136,13874 13156,13860 Z"/><path d="M 13156,13904 L 13176,13889 13178,13893 13156,13904 Z"/><path d="M 13178,13893 L 13206,13949 13183,13960 13161,13971 13133,13915 13156,13904 13178,13893 Z"/><path d="M 13228,14013 L 13239,14048 13215,14055 13191,14062 13180,14027 13204,14020 13228,14013 Z"/><path d="M 13215,14055 L 13239,14048 13239,14052 13239,14052 13215,14055 Z"/><path d="M 13239,14052 L 13245,14114 13221,14117 13196,14119 13190,14057 13215,14055 13239,14052 Z"/><path d="M 13242,14182 L 13239,14212 13215,14209 13190,14207 13192,14177 13217,14180 13242,14182 Z"/><path d="M 13215,14209 L 13239,14212 13239,14216 13239,14216 13215,14209 Z"/><path d="M 13239,14216 L 13219,14282 13195,14275 13171,14268 13191,14202 13215,14209 13239,14216 Z"/><path d="M 13192,14344 L 13178,14371 13156,14360 13133,14349 13147,14322 13169,14333 13192,14344 Z"/><path d="M 13156,14360 L 13178,14371 13176,14375 13156,14360 Z"/><path d="M 13176,14375 L 13138,14431 13117,14417 13097,14403 13135,14346 13156,14360 13176,14375 Z"/><path d="M 13096,14482 L 13060,14523 13041,14507 13022,14490 13059,14449 13077,14466 13096,14482 Z"/><path d="M 13041,14507 L 13060,14523 13058,14525 13041,14507 Z"/><path d="M 13058,14525 L 13026,14555 13009,14536 12992,14518 13024,14488 13041,14507 13058,14525 Z"/><path d="M 12976,14600 L 12896,14657 12867,14616 12947,14559 12976,14600 Z"/><path d="M 12844,14694 L 12785,14736 12770,14716 12756,14696 12815,14653 12830,14673 12844,14694 Z"/><path d="M 12770,14716 L 12785,14736 12782,14738 12770,14716 Z"/><path d="M 12782,14738 L 12760,14750 12748,14728 12736,14706 12758,14694 12770,14716 12782,14738 Z"/><path d="M 12704,14780 L 12618,14827 12594,14783 12680,14736 12704,14780 Z"/><path d="M 12562,14857 L 12540,14869 12528,14847 12516,14825 12538,14813 12550,14835 12562,14857 Z"/><path d="M 12528,14847 L 12540,14869 12538,14870 12528,14847 Z"/><path d="M 12538,14870 L 12470,14899 12460,14876 12450,14853 12518,14824 12528,14847 12538,14870 Z"/><path d="M 12412,14924 L 12321,14963 12302,14917 12392,14878 12412,14924 Z"/><path d="M 12263,14988 L 12250,14994 12240,14971 12230,14948 12243,14942 12253,14965 12263,14988 Z"/><path d="M 12240,14971 L 12250,14994 12248,14994 12240,14971 Z"/><path d="M 12248,14994 L 12169,15022 12160,14998 12152,14975 12232,14947 12240,14971 12248,14994 Z"/><path d="M 12109,15043 L 12016,15075 11999,15028 12092,14996 12109,15043 Z"/><path d="M 11956,15096 L 11917,15110 11909,15086 11901,15063 11939,15049 11947,15073 11956,15096 Z"/><path d="M 11909,15086 L 11917,15110 11916,15110 11909,15086 Z"/><path d="M 11916,15110 L 11860,15126 11853,15102 11847,15078 11902,15062 11909,15086 11916,15110 Z"/><path d="M 11799,15144 L 11705,15171 11691,15123 11786,15096 11799,15144 Z"/><path d="M 11644,15188 L 11549,15215 11535,15167 11630,15140 11644,15188 Z"/><path d="M 11485,15230 L 11389,15250 11379,15201 11475,15181 11485,15230 Z"/><path d="M 11327,15264 L 11231,15284 11220,15235 11316,15215 11327,15264 Z"/><path d="M 11169,15298 L 11072,15318 11062,15270 11158,15249 11169,15298 Z"/><path d="M 11010,15332 L 10914,15353 10903,15304 11000,15283 11010,15332 Z"/><path d="M 10852,15366 L 10756,15387 10745,15338 10841,15317 10852,15366 Z"/><path d="M 10693,15400 L 10692,15400 10687,15376 10682,15351 10683,15351 10688,15376 10693,15400 Z"/><path d="M 10687,15376 L 10692,15400 10690,15401 10687,15376 Z"/><path d="M 10690,15401 L 10594,15414 10591,15389 10587,15365 10683,15351 10687,15376 10690,15401 Z"/><path d="M 10531,15423 L 10434,15437 10427,15387 10524,15374 10531,15423 Z"/><path d="M 10371,15446 L 10273,15460 10266,15410 10364,15396 10371,15446 Z"/><path d="M 10211,15469 L 10113,15482 10106,15433 10204,15419 10211,15469 Z"/><path d="M 10050,15491 L 9953,15505 9946,15456 10043,15442 10050,15491 Z"/><path d="M 9890,15514 L 9792,15528 9785,15478 9883,15464 9890,15514 Z"/><path d="M 9729,15537 L 9714,15539 9710,15514 9707,15489 9722,15487 9726,15512 9729,15537 Z"/><path d="M 9710,15514 L 9714,15539 9712,15539 9710,15514 Z"/><path d="M 9712,15539 L 9630,15546 9628,15521 9626,15496 9708,15489 9710,15514 9712,15539 Z"/><path d="M 9566,15551 L 9468,15559 9464,15509 9562,15501 9566,15551 Z"/><path d="M 9405,15564 L 9307,15572 9303,15522 9401,15514 9405,15564 Z"/><path d="M 9244,15577 L 9145,15585 9141,15535 9239,15527 9244,15577 Z"/><path d="M 9082,15590 L 8984,15598 8980,15548 9078,15540 9082,15590 Z"/><path d="M 8921,15603 L 8822,15611 8818,15561 8917,15553 8921,15603 Z"/><path d="M 8759,15616 L 8661,15624 8657,15574 8755,15566 8759,15616 Z"/><path d="M 8596,15627 L 8498,15630 8496,15580 8595,15577 8596,15627 Z"/><path d="M 8434,15632 L 8336,15634 8334,15584 8433,15582 8434,15632 Z"/><path d="M 8272,15636 L 8174,15639 8173,15589 8271,15586 8272,15636 Z"/><path d="M 8110,15640 L 8012,15643 8011,15593 8109,15590 8110,15640 Z"/><path d="M 7948,15644 L 7850,15647 7849,15597 7947,15594 7948,15644 Z"/><path d="M 7786,15649 L 7688,15651 7687,15601 7785,15599 7786,15649 Z"/><path d="M 7625,15653 L 7526,15656 7525,15606 7623,15603 7625,15653 Z"/></g><g/></g></g></g></svg>