<svg width="750" height="751" viewBox="0 0 750 751" fill="none" xmlns="http://www.w3.org/2000/svg">
<path d="M374.91 0.600952C581.961 0.600952 749.816 168.452 749.816 375.502C749.816 582.562 581.961 750.399 374.91 750.399C167.838 750.399 0 582.562 0 375.502C0 168.465 167.838 0.618859 374.915 0.618859L374.91 0.600952ZM202.981 541.316C204.581 543.938 206.682 546.218 209.164 548.026C211.646 549.835 214.461 551.136 217.446 551.856C220.432 552.575 223.53 552.698 226.564 552.219C229.597 551.739 232.507 550.666 235.125 549.061C323.149 495.294 433.96 483.117 564.461 512.933C570.503 514.307 576.844 513.226 582.09 509.927C587.336 506.627 591.057 501.381 592.436 495.339C593.123 492.347 593.213 489.25 592.701 486.224C592.189 483.197 591.085 480.302 589.453 477.703C587.82 475.104 585.691 472.852 583.187 471.077C580.683 469.302 577.853 468.038 574.86 467.358C432.048 434.731 309.548 448.78 210.726 509.172C199.713 515.932 196.221 530.303 202.981 541.316ZM157.093 439.235C165.554 452.988 183.551 457.33 197.295 448.869C298.069 386.927 451.684 368.988 570.88 405.17C586.339 409.84 602.666 401.128 607.358 385.696C609.597 378.277 608.802 370.273 605.148 363.439C601.494 356.605 595.279 351.499 587.866 349.241C451.711 307.928 282.445 327.94 166.718 399.055C152.974 407.516 148.632 425.509 157.093 439.235ZM153.153 332.936C273.984 261.168 473.339 254.569 588.703 289.582C607.228 295.201 626.819 284.743 632.433 266.218C635.132 257.317 634.186 247.709 629.803 239.506C625.42 231.303 617.958 225.177 609.059 222.474C476.629 182.272 256.479 190.039 117.365 272.624C113.401 274.969 109.938 278.074 107.174 281.76C104.411 285.446 102.403 289.641 101.263 294.104C100.124 298.568 99.8758 303.212 100.534 307.771C101.192 312.331 102.743 316.715 105.099 320.674C114.948 337.337 136.526 342.83 153.136 332.936H153.153Z" fill="#C81ED7"/>
</svg>
